<svg xmlns="http://www.w3.org/2000/svg" viewBox="0 0 600 600" width="600" height="600" role="img" aria-label="Three-tier tiffin including paneer sabji">
<rect width="600" height="600" fill="#FFF8F0"/>

  <ellipse cx="300" cy="465.59999999999997" rx="158.4" ry="11" fill="#C9C3B8" opacity=".4"/>
  
  <rect x="168" y="352.8" width="264" height="79.2" rx="17.424" fill="#FFFFFF" stroke="#C9C3B8" stroke-width="3.5"/>
  <rect x="180" y="376.56" width="240" height="34.848" rx="12.672" fill="#E9A33C"/>
  <rect x="154.5" y="337.2" width="291" height="29.639999999999997" rx="11.7" fill="#E4E0D8" stroke="#C9C3B8" stroke-width="3"/>
  <rect x="168" y="247.2" width="264" height="79.2" rx="17.424" fill="#FFFFFF" stroke="#C9C3B8" stroke-width="3.5"/>
  <rect x="180" y="270.96" width="240" height="34.848" rx="12.672" fill="#FFEEDC"/>
  <rect x="190" y="277.9296" width="21.60576" height="21.60576" rx="3" fill="#FFFDF8" stroke="#D2A971" stroke-width="2"/><rect x="268.46153846153845" y="277.9296" width="21.60576" height="21.60576" rx="3" fill="#FFFDF8" stroke="#D2A971" stroke-width="2"/><rect x="346.9230769230769" y="277.9296" width="21.60576" height="21.60576" rx="3" fill="#FFFDF8" stroke="#D2A971" stroke-width="2"/>
  <rect x="154.5" y="231.6" width="291" height="29.639999999999997" rx="11.7" fill="#E4E0D8" stroke="#C9C3B8" stroke-width="3"/>
  <rect x="168" y="141.60000000000002" width="264" height="79.2" rx="17.424" fill="#FFFFFF" stroke="#C9C3B8" stroke-width="3.5"/>
  <rect x="180" y="165.36" width="240" height="34.848" rx="12.672" fill="#57A05A"/>
  <rect x="154.5" y="126.00000000000003" width="291" height="29.639999999999997" rx="11.7" fill="#E4E0D8" stroke="#C9C3B8" stroke-width="3"/>
  <path d="M249.84 126.00000000000003 a 50.160000000000004 42.24 0 0 1 100.32000000000001 0"
        fill="none" stroke="#C9C3B8" stroke-width="6" stroke-linecap="round"/>
  <circle cx="300" cy="85.08000000000003" r="7" fill="#2E7D32"/>
</svg>